<mxfile host="app.diagrams.net" modified="2023-06-14T17:26:06.399Z" agent="Mozilla/5.0 (Macintosh; Intel Mac OS X 10_15_7) AppleWebKit/537.36 (KHTML, like Gecko) Chrome/114.0.0.0 Safari/537.36" version="21.3.8" etag="SLLnQYv6BURXX6u0PETU" type="github">
  <diagram name="Page-1" id="HnMfe0a0eRLMPqjAUpso">
    <mxGraphModel>
      <root>
        <mxCell id="0" />
        <mxCell id="1" parent="0" />
      </root>
    </mxGraphModel>
  </diagram>
</mxfile>
